# xmcd CD database file
#
# Track frame offsets:
#	150
#	24975
#	49600
#	73230
#	91842
#
# Disc length: 1499 seconds
#
# Revision: 0
# Processed by: cddbd v1.5PL3 Copyright (c) Steve Scherf et al.
# Submitted via: CDex 1.51
#
DISCID=3705d905
DTITLE=Syrup16g - My Song
DYEAR=2003
DGENRE=Rock
TTITLE0=My Song
TTITLE1=タクシードライバー・ブラインドネス
TTITLE2=夢
TTITLE3=イマジン
TTITLE4=テイレベル
EXTD=YEAR: 2003
EXTT0=
EXTT1=
EXTT2=
EXTT3=
EXTT4=
PLAYORDER=
